# Created by CloudCompare v2.11.3 (Anoia)
# Created 2021/8/10 11:28
v -31.38746071 0.25127298 -10.00000000
v -31.20129204 3.46015000 -10.00000000
v -30.79830360 7.01484489 -10.00000000
v -30.20218086 10.82878876 -10.00000000
v -29.43660545 14.81540966 -9.99999905
v -28.52525139 18.88813782 -9.99999905
v -27.49180794 22.96040344 -9.99999905
v -26.35994530 26.94563675 -9.99999905
v -25.15334892 30.75726318 -9.99999905
v -23.89570045 34.30871582 -9.99999809
v -22.61067390 37.51342392 -9.99999809
v -21.32195854 40.28481674 -9.99999809
v -20.05322838 42.53632355 -9.99999809
v -18.14361382 44.56897736 -9.99999809
v -15.37906933 46.21084213 -9.99999809
v -11.93791294 47.47494507 -9.99999809
v -7.99845457 48.37430573 -9.99999809
v -3.73901367 48.92195129 -9.99999809
v 0.66209596 49.13090134 -9.99999809
v 5.02655649 49.01417542 -9.99999809
v 9.17605400 48.58480072 -9.99999809
v 12.93227291 47.85580063 -9.99999809
v 16.11689568 46.84019089 -9.99999809
v 18.55160904 45.55099869 -9.99999809
v 20.05810547 44.00124359 -9.99999809
v 21.11434746 41.93537521 -9.99999809
v 22.24596405 39.23659515 -9.99999809
v 23.41531754 36.00804901 -9.99999809
v 24.58477402 32.35288620 -9.99999809
v 25.71669960 28.37424850 -9.99999905
v 26.77345848 24.17528915 -9.99999905
v 27.71741486 19.85914803 -9.99999905
v 28.51093483 15.52897453 -9.99999905
v 29.11638451 11.28791714 -10.00000000
v 29.49612999 7.23912096 -10.00000000
v 29.61253166 3.48573399 -10.00000000
v 29.42796135 0.13089995 -10.00000000
v -31.38746071 0.25127208 10.00000000
v -31.20129204 3.46014905 10.00000000
v -30.79830360 7.01484394 10.00000000
v -30.20218086 10.82878780 10.00000000
v -29.43660545 14.81540871 10.00000000
v -28.52525139 18.88813782 10.00000000
v -27.49180794 22.96040344 10.00000191
v -26.35994530 26.94563675 10.00000191
v -25.15334892 30.75726318 10.00000191
v -23.89570045 34.30871582 10.00000191
v -22.61067390 37.51342392 10.00000191
v -21.32195854 40.28481674 10.00000191
v -20.05322838 42.53632355 10.00000191
v -18.14361382 44.56897736 10.00000191
v -15.37906933 46.21084213 10.00000191
v -11.93791294 47.47494507 10.00000191
v -7.99845457 48.37430573 10.00000191
v -3.73901367 48.92195129 10.00000191
v 0.66209596 49.13090134 10.00000191
v 5.02655649 49.01417542 10.00000191
v 9.17605400 48.58480072 10.00000191
v 12.93227291 47.85580063 10.00000191
v 16.11689568 46.84019089 10.00000191
v 18.55160904 45.55099869 10.00000191
v 20.05810547 44.00124359 10.00000191
v 21.11434746 41.93537521 10.00000191
v 22.24596405 39.23659515 10.00000191
v 23.41531754 36.00804901 10.00000191
v 24.58477402 32.35288620 10.00000191
v 25.71669960 28.37424850 10.00000191
v 26.77345848 24.17528915 10.00000191
v 27.71741486 19.85914803 10.00000000
v 28.51093483 15.52897358 10.00000000
v 29.11638451 11.28791618 10.00000000
v 29.49612999 7.23912001 10.00000000
v 29.61253166 3.48573303 10.00000000
v 29.42796135 0.13089907 10.00000000
vn 0.34465942 -0.93872696 0.00125331
vn 0.99353558 -0.11351604 0.00108111
vn -0.96175063 -0.27392396 0.00120671
vn 0.22349182 -0.97470516 0.00117011
vn 0.98788875 -0.15515994 0.00111626
vn -0.97007209 -0.24281414 0.00118446
vn 0.12793656 -0.99178171 0.00109347
vn 0.98204654 -0.18863524 0.00114324
vn -0.97713375 -0.21262245 0.00116187
vn 0.04805085 -0.99884439 0.00102236
vn 0.97593886 -0.21804130 0.00116600
vn -0.98352176 -0.18078607 0.00113702
vn -0.02707130 -0.99963301 0.00100264
vn 0.96936923 -0.24560519 0.00118650
vn -0.99012470 -0.14018488 0.00110382
vn -0.10194712 -0.99478924 0.00107313
vn 0.96175063 -0.27392396 0.00120671
vn -0.99571657 -0.09245180 0.00106266
vn -0.19126804 -0.98153722 0.00114532
vn 0.95300561 -0.30295029 0.00122652
vn -0.99951255 -0.03120331 0.00100656
vn -0.30295029 -0.95300561 0.00122652
vn 0.94305861 -0.33262438 0.00124578
vn -0.99851316 0.05450175 0.00102833
vn -0.46873641 -0.88333708 0.00132038
vn 0.92821294 -0.37204707 0.00126979
vn -0.71670663 -0.69737345 0.00138094
vn 0.90677804 -0.42160636 0.00129725
vn -0.88991249 -0.45612943 0.00131449
vn 0.87125486 -0.49082908 0.00133016
vn -0.92189920 -0.38742781 0.00127864
vn 0.72750992 -0.68609571 0.00138047
vn -0.93982923 -0.34164232 0.00125144
vn 0.50976527 -0.86031252 0.00133797
vn 0.99826670 -0.05884302 0.00103233
vn -0.95206618 -0.30588964 0.00122847
g curve_wall
f 15//1 16//1 53//1
f 15//1 53//1 52//1
f 2//2 3//2 40//2
f 2//2 40//2 39//2
f 29//3 30//3 67//3
f 29//3 67//3 66//3
f 16//4 17//4 54//4
f 16//4 54//4 53//4
f 3//5 4//5 41//5
f 3//5 41//5 40//5
f 30//6 31//6 68//6
f 30//6 68//6 67//6
f 17//7 18//7 55//7
f 17//7 55//7 54//7
f 4//8 5//8 42//8
f 4//8 42//8 41//8
f 31//9 32//9 69//9
f 31//9 69//9 68//9
f 18//10 19//10 56//10
f 18//10 56//10 55//10
f 5//11 6//11 43//11
f 5//11 43//11 42//11
f 32//12 33//12 70//12
f 32//12 70//12 69//12
f 19//13 20//13 57//13
f 19//13 57//13 56//13
f 6//14 7//14 44//14
f 6//14 44//14 43//14
f 33//15 34//15 71//15
f 33//15 71//15 70//15
f 20//16 21//16 58//16
f 20//16 58//16 57//16
f 7//17 8//17 45//17
f 7//17 45//17 44//17
f 34//18 35//18 72//18
f 34//18 72//18 71//18
f 21//19 22//19 59//19
f 21//19 59//19 58//19
f 8//20 9//20 46//20
f 8//20 46//20 45//20
f 35//21 36//21 73//21
f 35//21 73//21 72//21
f 22//22 23//22 60//22
f 22//22 60//22 59//22
f 9//23 10//23 47//23
f 9//23 47//23 46//23
f 36//24 37//24 74//24
f 36//24 74//24 73//24
f 23//25 24//25 61//25
f 23//25 61//25 60//25
f 10//26 11//26 48//26
f 10//26 48//26 47//26
f 24//27 25//27 62//27
f 24//27 62//27 61//27
f 11//28 12//28 49//28
f 11//28 49//28 48//28
f 25//29 26//29 63//29
f 25//29 63//29 62//29
f 12//30 13//30 50//30
f 12//30 50//30 49//30
f 26//31 27//31 64//31
f 26//31 64//31 63//31
f 13//32 14//32 51//32
f 13//32 51//32 50//32
f 27//33 28//33 65//33
f 27//33 65//33 64//33
f 14//34 15//34 52//34
f 14//34 52//34 51//34
f 1//35 2//35 39//35
f 1//35 39//35 38//35
f 28//36 29//36 66//36
f 28//36 66//36 65//36
#72 faces
