# Blender v2.93.2 OBJ File: ''
# www.blender.org
mtllib curve_wall.mtl
o Cube
v 3.832639 3.736139 -10.085275
v 3.832639 1.736139 -10.085275
v 3.832639 3.736139 -8.085275
v 3.832639 1.736139 -8.085275
v 1.832639 3.736139 -10.085275
v 1.832639 1.736139 -10.085275
v 1.832639 3.736139 -8.085275
v 1.832639 1.736139 -8.085275
vt 0.625000 0.500000
vt 0.875000 0.500000
vt 0.875000 0.750000
vt 0.625000 0.750000
vt 0.375000 0.750000
vt 0.625000 1.000000
vt 0.375000 1.000000
vt 0.375000 0.000000
vt 0.625000 0.000000
vt 0.625000 0.250000
vt 0.375000 0.250000
vt 0.125000 0.500000
vt 0.375000 0.500000
vt 0.125000 0.750000
vn 0.0000 1.0000 0.0000
vn 0.0000 0.0000 1.0000
vn -1.0000 0.0000 0.0000
vn 0.0000 -1.0000 0.0000
vn 1.0000 0.0000 0.0000
vn 0.0000 0.0000 -1.0000
usemtl Material
s off
f 1/1/1 5/2/1 7/3/1 3/4/1
f 4/5/2 3/4/2 7/6/2 8/7/2
f 8/8/3 7/9/3 5/10/3 6/11/3
f 6/12/4 2/13/4 4/5/4 8/14/4
f 2/13/5 1/1/5 3/4/5 4/5/5
f 6/11/6 5/10/6 1/1/6 2/13/6
o BezierCurve_BezierCurve.002
v -4.147985 0.000000 -0.018515
v -4.132957 0.000000 -0.254964
v -4.100428 0.000000 -0.516895
v -4.052309 0.000000 -0.797929
v -3.990512 0.000000 -1.091687
v -3.916948 0.000000 -1.391790
v -3.833528 0.000000 -1.691859
v -3.742165 0.000000 -1.985514
v -3.644768 0.000000 -2.266378
v -3.543251 0.000000 -2.528070
v -3.439524 0.000000 -2.764212
v -3.335500 0.000000 -2.968425
v -3.233088 0.000000 -3.134329
v -3.078944 0.000000 -3.284107
v -2.855791 0.000000 -3.405089
v -2.578021 0.000000 -3.498236
v -2.260029 0.000000 -3.564506
v -1.916208 0.000000 -3.604860
v -1.560951 0.000000 -3.620256
v -1.208653 0.000000 -3.611655
v -0.873706 0.000000 -3.580017
v -0.570505 0.000000 -3.526299
v -0.313443 0.000000 -3.451463
v -0.116914 0.000000 -3.356468
v 0.004690 0.000000 -3.242273
v 0.089950 0.000000 -3.090047
v 0.181294 0.000000 -2.891185
v 0.275684 0.000000 -2.653287
v 0.370082 0.000000 -2.383953
v 0.461451 0.000000 -2.090783
v 0.546752 0.000000 -1.781379
v 0.622948 0.000000 -1.463340
v 0.687001 0.000000 -1.144267
v 0.735873 0.000000 -0.831761
v 0.766526 0.000000 -0.533421
v 0.775922 0.000000 -0.256850
v 0.761023 0.000000 -0.009645
l 9 10
l 10 11
l 11 12
l 12 13
l 13 14
l 14 15
l 15 16
l 16 17
l 17 18
l 18 19
l 19 20
l 20 21
l 21 22
l 22 23
l 23 24
l 24 25
l 25 26
l 26 27
l 27 28
l 28 29
l 29 30
l 30 31
l 31 32
l 32 33
l 33 34
l 34 35
l 35 36
l 36 37
l 37 38
l 38 39
l 39 40
l 40 41
l 41 42
l 42 43
l 43 44
l 44 45
o BezierCurve.001_BezierCurve.002
v -4.147985 2.000000 -0.018515
v -4.132957 2.000000 -0.254964
v -4.100428 2.000000 -0.516895
v -4.052309 2.000000 -0.797929
v -3.990512 2.000000 -1.091687
v -3.916948 2.000000 -1.391790
v -3.833528 2.000000 -1.691859
v -3.742165 2.000000 -1.985514
v -3.644768 2.000000 -2.266378
v -3.543251 2.000000 -2.528070
v -3.439524 2.000000 -2.764212
v -3.335500 2.000000 -2.968425
v -3.233088 2.000000 -3.134329
v -3.078944 2.000000 -3.284107
v -2.855791 2.000000 -3.405089
v -2.578021 2.000000 -3.498236
v -2.260029 2.000000 -3.564506
v -1.916208 2.000000 -3.604860
v -1.560951 2.000000 -3.620256
v -1.208653 2.000000 -3.611655
v -0.873706 2.000000 -3.580017
v -0.570505 2.000000 -3.526299
v -0.313443 2.000000 -3.451463
v -0.116914 2.000000 -3.356468
v 0.004690 2.000000 -3.242273
v 0.089950 2.000000 -3.090047
v 0.181294 2.000000 -2.891185
v 0.275684 2.000000 -2.653287
v 0.370082 2.000000 -2.383953
v 0.461451 2.000000 -2.090783
v 0.546752 2.000000 -1.781379
v 0.622948 2.000000 -1.463340
v 0.687001 2.000000 -1.144267
v 0.735873 2.000000 -0.831761
v 0.766526 2.000000 -0.533421
v 0.775922 2.000000 -0.256850
v 0.761023 2.000000 -0.009645
l 46 47
l 47 48
l 48 49
l 49 50
l 50 51
l 51 52
l 52 53
l 53 54
l 54 55
l 55 56
l 56 57
l 57 58
l 58 59
l 59 60
l 60 61
l 61 62
l 62 63
l 63 64
l 64 65
l 65 66
l 66 67
l 67 68
l 68 69
l 69 70
l 70 71
l 71 72
l 72 73
l 73 74
l 74 75
l 75 76
l 76 77
l 77 78
l 78 79
l 79 80
l 80 81
l 81 82
o BezierCurve.002_BezierCurve.003
v -31.387463 1.000000 -0.251273
v -31.201294 1.000000 -3.460150
v -30.798306 1.000000 -7.014845
v -30.202183 1.000000 -10.828789
v -29.436607 1.000000 -14.815410
v -28.525253 1.000000 -18.888138
v -27.491810 1.000000 -22.960403
v -26.359947 1.000000 -26.945637
v -25.153351 1.000000 -30.757263
v -23.895702 1.000000 -34.308716
v -22.610676 1.000000 -37.513424
v -21.321960 1.000000 -40.284817
v -20.053230 1.000000 -42.536324
v -18.143616 1.000000 -44.568977
v -15.379070 1.000000 -46.210842
v -11.937914 1.000000 -47.474945
v -7.998455 1.000000 -48.374306
v -3.739014 1.000000 -48.921951
v 0.662096 1.000000 -49.130901
v 5.026557 1.000000 -49.014175
v 9.176055 1.000000 -48.584801
v 12.932274 1.000000 -47.855801
v 16.116898 1.000000 -46.840191
v 18.551611 1.000000 -45.550999
v 20.058107 1.000000 -44.001244
v 21.114349 1.000000 -41.935375
v 22.245966 1.000000 -39.236595
v 23.415319 1.000000 -36.008049
v 24.584776 1.000000 -32.352886
v 25.716702 1.000000 -28.374249
v 26.773460 1.000000 -24.175289
v 27.717417 1.000000 -19.859148
v 28.510937 1.000000 -15.528975
v 29.116386 1.000000 -11.287917
v 29.496132 1.000000 -7.239121
v 29.612534 1.000000 -3.485734
v 29.427963 1.000000 -0.130900
v -31.387463 21.000000 -0.251273
v -31.201294 21.000000 -3.460150
v -30.798306 21.000000 -7.014845
v -30.202183 21.000000 -10.828789
v -29.436607 21.000000 -14.815410
v -28.525253 21.000000 -18.888138
v -27.491810 21.000000 -22.960403
v -26.359947 21.000000 -26.945637
v -25.153351 21.000000 -30.757263
v -23.895702 21.000000 -34.308716
v -22.610676 21.000000 -37.513424
v -21.321960 21.000000 -40.284817
v -20.053230 21.000000 -42.536324
v -18.143616 21.000000 -44.568977
v -15.379070 21.000000 -46.210842
v -11.937914 21.000000 -47.474945
v -7.998455 21.000000 -48.374306
v -3.739014 21.000000 -48.921951
v 0.662096 21.000000 -49.130901
v 5.026557 21.000000 -49.014175
v 9.176055 21.000000 -48.584801
v 12.932274 21.000000 -47.855801
v 16.116898 21.000000 -46.840191
v 18.551611 21.000000 -45.550999
v 20.058107 21.000000 -44.001244
v 21.114349 21.000000 -41.935375
v 22.245966 21.000000 -39.236595
v 23.415319 21.000000 -36.008049
v 24.584776 21.000000 -32.352886
v 25.716702 21.000000 -28.374249
v 26.773460 21.000000 -24.175289
v 27.717417 21.000000 -19.859148
v 28.510937 21.000000 -15.528975
v 29.116386 21.000000 -11.287917
v 29.496132 21.000000 -7.239121
v 29.612534 21.000000 -3.485734
v 29.427963 21.000000 -0.130900
vt 0.000000 0.000000
vt 0.000000 0.000000
vt 0.000000 0.000000
vt 0.000000 0.000000
vt 0.000000 0.000000
vt 0.000000 0.000000
vt 0.000000 0.000000
vt 0.000000 0.000000
vt 0.000000 0.000000
vt 0.000000 0.000000
vt 0.000000 0.000000
vt 0.000000 0.000000
vt 0.000000 0.000000
vt 0.000000 0.000000
vt 0.000000 0.000000
vt 0.000000 0.000000
vt 0.000000 0.000000
vt 0.000000 0.000000
vt 0.000000 0.000000
vt 0.000000 0.000000
vt 0.000000 0.000000
vt 0.000000 0.000000
vt 0.000000 0.000000
vt 0.000000 0.000000
vt 0.000000 0.000000
vt 0.000000 0.000000
vt 0.000000 0.000000
vt 0.000000 0.000000
vt 0.000000 0.000000
vt 0.000000 0.000000
vt 0.000000 0.000000
vt 0.000000 0.000000
vt 0.000000 0.000000
vt 0.000000 0.000000
vt 0.000000 0.000000
vt 0.000000 0.000000
vt 0.000000 0.000000
vt 0.000000 0.000000
vt 0.000000 0.000000
vt 0.000000 0.000000
vt 0.000000 0.000000
vt 0.000000 0.000000
vt 0.000000 0.000000
vt 0.000000 0.000000
vt 0.000000 0.000000
vt 0.000000 0.000000
vt 0.000000 0.000000
vt 0.000000 0.000000
vt 0.000000 0.000000
vt 0.000000 0.000000
vt 0.000000 0.000000
vt 0.000000 0.000000
vt 0.000000 0.000000
vt 0.000000 0.000000
vt 0.000000 0.000000
vt 0.000000 0.000000
vt 0.000000 0.000000
vt 0.000000 0.000000
vt 0.000000 0.000000
vt 0.000000 0.000000
vt 0.000000 0.000000
vt 0.000000 0.000000
vt 0.000000 0.000000
vt 0.000000 0.000000
vt 0.000000 0.000000
vt 0.000000 0.000000
vt 0.000000 0.000000
vt 0.000000 0.000000
vt 0.000000 0.000000
vt 0.000000 0.000000
vt 0.000000 0.000000
vt 0.000000 0.000000
vt 0.000000 0.000000
vt 0.000000 0.000000
vn 0.3448 0.0000 0.9387
vn 0.9936 0.0000 0.1126
vn -0.9618 0.0000 0.2736
vn 0.2226 0.0000 0.9749
vn 0.9880 0.0000 0.1544
vn -0.9698 0.0000 0.2441
vn 0.1275 0.0000 0.9918
vn 0.9821 0.0000 0.1886
vn -0.9769 0.0000 0.2137
vn 0.0474 0.0000 0.9989
vn 0.9759 0.0000 0.2184
vn -0.9836 0.0000 0.1803
vn -0.0267 0.0000 0.9996
vn 0.9693 0.0000 0.2460
vn -0.9900 0.0000 0.1413
vn -0.1029 0.0000 0.9947
vn 0.9620 0.0000 0.2732
vn -0.9956 0.0000 0.0934
vn -0.1905 0.0000 0.9817
vn 0.9534 0.0000 0.3018
vn -0.9995 0.0000 0.0310
vn -0.3038 0.0000 0.9527
vn 0.9426 0.0000 0.3338
vn -0.9985 0.0000 -0.0549
vn -0.4680 0.0000 0.8838
vn 0.9282 0.0000 0.3722
vn -0.7170 0.0000 0.6970
vn 0.9068 0.0000 0.4216
vn -0.8904 0.0000 0.4552
vn 0.8712 0.0000 0.4909
vn -0.9222 0.0000 0.3867
vn 0.7288 0.0000 0.6847
vn -0.9402 0.0000 0.3405
vn 0.5106 0.0000 0.8598
vn 0.9983 0.0000 0.0579
vn -0.9524 0.0000 0.3047
usemtl None
s off
f 97/15/7 98/16/7 135/17/7 134/18/7
f 84/19/8 85/20/8 122/21/8 121/22/8
f 111/23/9 112/24/9 149/25/9 148/26/9
f 98/16/10 99/27/10 136/28/10 135/17/10
f 85/20/11 86/29/11 123/30/11 122/21/11
f 112/24/12 113/31/12 150/32/12 149/25/12
f 99/27/13 100/33/13 137/34/13 136/28/13
f 86/29/14 87/35/14 124/36/14 123/30/14
f 113/31/15 114/37/15 151/38/15 150/32/15
f 100/33/16 101/39/16 138/40/16 137/34/16
f 87/35/17 88/41/17 125/42/17 124/36/17
f 114/37/18 115/43/18 152/44/18 151/38/18
f 101/39/19 102/45/19 139/46/19 138/40/19
f 88/41/20 89/47/20 126/48/20 125/42/20
f 115/43/21 116/49/21 153/50/21 152/44/21
f 102/45/22 103/51/22 140/52/22 139/46/22
f 89/47/23 90/53/23 127/54/23 126/48/23
f 116/49/24 117/55/24 154/56/24 153/50/24
f 103/51/25 104/57/25 141/58/25 140/52/25
f 90/53/26 91/59/26 128/60/26 127/54/26
f 117/55/27 118/61/27 155/62/27 154/56/27
f 104/57/28 105/63/28 142/64/28 141/58/28
f 91/59/29 92/65/29 129/66/29 128/60/29
f 118/61/30 119/67/30 156/68/30 155/62/30
f 105/63/31 106/69/31 143/70/31 142/64/31
f 92/65/32 93/71/32 130/72/32 129/66/32
f 106/69/33 107/73/33 144/74/33 143/70/33
f 93/71/34 94/75/34 131/76/34 130/72/34
f 107/73/35 108/77/35 145/78/35 144/74/35
f 94/75/36 95/79/36 132/80/36 131/76/36
f 108/77/37 109/81/37 146/82/37 145/78/37
f 95/79/38 96/83/38 133/84/38 132/80/38
f 109/81/39 110/85/39 147/86/39 146/82/39
f 96/83/40 97/15/40 134/18/40 133/84/40
f 83/87/41 84/19/41 121/22/41 120/88/41
f 110/85/42 111/23/42 148/26/42 147/86/42
o BezierCurve_cpy_BezierCurve.005
v -4.147985 2.000000 -0.018515
v -4.132957 2.000000 -0.254964
v -4.100428 2.000000 -0.516895
v -4.052309 2.000000 -0.797929
v -3.990512 2.000000 -1.091687
v -3.916948 2.000000 -1.391790
v -3.833528 2.000000 -1.691859
v -3.742165 2.000000 -1.985514
v -3.644768 2.000000 -2.266378
v -3.543251 2.000000 -2.528070
v -3.439524 2.000000 -2.764212
v -3.335500 2.000000 -2.968425
v -3.233088 2.000000 -3.134329
v -3.078944 2.000000 -3.284107
v -2.855791 2.000000 -3.405089
v -2.578021 2.000000 -3.498236
v -2.260029 2.000000 -3.564506
v -1.916208 2.000000 -3.604860
v -1.560951 2.000000 -3.620256
v -1.208653 2.000000 -3.611655
v -0.873706 2.000000 -3.580017
v -0.570505 2.000000 -3.526299
v -0.313443 2.000000 -3.451463
v -0.116914 2.000000 -3.356468
v 0.004690 2.000000 -3.242273
v 0.089950 2.000000 -3.090047
v 0.181294 2.000000 -2.891185
v 0.275684 2.000000 -2.653287
v 0.370082 2.000000 -2.383953
v 0.461451 2.000000 -2.090783
v 0.546752 2.000000 -1.781379
v 0.622948 2.000000 -1.463340
v 0.687001 2.000000 -1.144267
v 0.735873 2.000000 -0.831761
v 0.766526 2.000000 -0.533421
v 0.775922 2.000000 -0.256850
v 0.761023 2.000000 -0.009645
l 157 158
l 158 159
l 159 160
l 160 161
l 161 162
l 162 163
l 163 164
l 164 165
l 165 166
l 166 167
l 167 168
l 168 169
l 169 170
l 170 171
l 171 172
l 172 173
l 173 174
l 174 175
l 175 176
l 176 177
l 177 178
l 178 179
l 179 180
l 180 181
l 181 182
l 182 183
l 183 184
l 184 185
l 185 186
l 186 187
l 187 188
l 188 189
l 189 190
l 190 191
l 191 192
l 192 193
