# Created by CloudCompare v2.11.3 (Anoia)
# Created 2021/8/10 11:19
v -31.38746262 1.00000000 -0.25127301
v -31.20129395 1.00000000 -3.46015000
v -30.79830551 1.00000000 -7.01484489
v -30.20218277 1.00000000 -10.82878876
v -29.43660736 1.00000000 -14.81540966
v -28.52525330 1.00000000 -18.88813782
v -27.49180984 1.00000000 -22.96040344
v -26.35994720 1.00000000 -26.94563675
v -25.15335083 1.00000000 -30.75726318
v -23.89570236 1.00000000 -34.30871582
v -22.61067581 1.00000000 -37.51342392
v -21.32196045 1.00000000 -40.28481674
v -20.05323029 1.00000000 -42.53632355
v -18.14361572 1.00000000 -44.56897736
v -15.37907028 1.00000000 -46.21084213
v -11.93791389 1.00000000 -47.47494507
v -7.99845505 1.00000000 -48.37430573
v -3.73901391 1.00000000 -48.92195129
v 0.66209602 1.00000000 -49.13090134
v 5.02655697 1.00000000 -49.01417542
v 9.17605495 1.00000000 -48.58480072
v 12.93227386 1.00000000 -47.85580063
v 16.11689758 1.00000000 -46.84019089
v 18.55161095 1.00000000 -45.55099869
v 20.05810738 1.00000000 -44.00124359
v 21.11434937 1.00000000 -41.93537521
v 22.24596596 1.00000000 -39.23659515
v 23.41531944 1.00000000 -36.00804901
v 24.58477592 1.00000000 -32.35288620
v 25.71670151 1.00000000 -28.37424850
v 26.77346039 1.00000000 -24.17528915
v 27.71741676 1.00000000 -19.85914803
v 28.51093674 1.00000000 -15.52897453
v 29.11638641 1.00000000 -11.28791714
v 29.49613190 1.00000000 -7.23912096
v 29.61253357 1.00000000 -3.48573399
v 29.42796326 1.00000000 -0.13090000
v -31.38746262 21.00000000 -0.25127301
v -31.20129395 21.00000000 -3.46015000
v -30.79830551 21.00000000 -7.01484489
v -30.20218277 21.00000000 -10.82878876
v -29.43660736 21.00000000 -14.81540966
v -28.52525330 21.00000000 -18.88813782
v -27.49180984 21.00000000 -22.96040344
v -26.35994720 21.00000000 -26.94563675
v -25.15335083 21.00000000 -30.75726318
v -23.89570236 21.00000000 -34.30871582
v -22.61067581 21.00000000 -37.51342392
v -21.32196045 21.00000000 -40.28481674
v -20.05323029 21.00000000 -42.53632355
v -18.14361572 21.00000000 -44.56897736
v -15.37907028 21.00000000 -46.21084213
v -11.93791389 21.00000000 -47.47494507
v -7.99845505 21.00000000 -48.37430573
v -3.73901391 21.00000000 -48.92195129
v 0.66209602 21.00000000 -49.13090134
v 5.02655697 21.00000000 -49.01417542
v 9.17605495 21.00000000 -48.58480072
v 12.93227386 21.00000000 -47.85580063
v 16.11689758 21.00000000 -46.84019089
v 18.55161095 21.00000000 -45.55099869
v 20.05810738 21.00000000 -44.00124359
v 21.11434937 21.00000000 -41.93537521
v 22.24596596 21.00000000 -39.23659515
v 23.41531944 21.00000000 -36.00804901
v 24.58477592 21.00000000 -32.35288620
v 25.71670151 21.00000000 -28.37424850
v 26.77346039 21.00000000 -24.17528915
v 27.71741676 21.00000000 -19.85914803
v 28.51093674 21.00000000 -15.52897453
v 29.11638641 21.00000000 -11.28791714
v 29.49613190 21.00000000 -7.23912096
v 29.61253357 21.00000000 -3.48573399
v 29.42796326 21.00000000 -0.13090000
vn 0.34465942 0.00125331 0.93872696
vn 0.99353558 0.00108111 0.11351604
vn -0.96175063 0.00120671 0.27392396
vn 0.22349182 0.00117011 0.97470516
vn 0.98788875 0.00111626 0.15515994
vn -0.97007209 0.00118446 0.24281414
vn 0.12793656 0.00109347 0.99178171
vn 0.98204654 0.00114324 0.18863524
vn -0.97713375 0.00116187 0.21262245
vn 0.04805085 0.00102236 0.99884439
vn 0.97593886 0.00116600 0.21804130
vn -0.98352176 0.00113702 0.18078607
vn -0.02707130 0.00100264 0.99963301
vn 0.96936923 0.00118650 0.24560519
vn -0.99012470 0.00110382 0.14018488
vn -0.10194712 0.00107313 0.99478924
vn 0.96175063 0.00120671 0.27392396
vn -0.99571657 0.00106266 0.09245180
vn -0.19126804 0.00114532 0.98153722
vn 0.95300561 0.00122652 0.30295029
vn -0.99951255 0.00100656 0.03120331
vn -0.30295029 0.00122652 0.95300561
vn 0.94305861 0.00124578 0.33262438
vn -0.99851316 0.00102833 -0.05450175
vn -0.46873641 0.00132038 0.88333708
vn 0.92821294 0.00126979 0.37204707
vn -0.71670663 0.00138094 0.69737345
vn 0.90677804 0.00129725 0.42160636
vn -0.88991249 0.00131449 0.45612943
vn 0.87125486 0.00133016 0.49082908
vn -0.92189920 0.00127864 0.38742781
vn 0.72750992 0.00138047 0.68609571
vn -0.93982923 0.00125144 0.34164232
vn 0.50976527 0.00133797 0.86031252
vn 0.99826670 0.00103233 0.05884302
vn -0.95206618 0.00122847 0.30588964
g curve_wall
f 15//1 16//1 53//1
f 15//1 53//1 52//1
f 2//2 3//2 40//2
f 2//2 40//2 39//2
f 29//3 30//3 67//3
f 29//3 67//3 66//3
f 16//4 17//4 54//4
f 16//4 54//4 53//4
f 3//5 4//5 41//5
f 3//5 41//5 40//5
f 30//6 31//6 68//6
f 30//6 68//6 67//6
f 17//7 18//7 55//7
f 17//7 55//7 54//7
f 4//8 5//8 42//8
f 4//8 42//8 41//8
f 31//9 32//9 69//9
f 31//9 69//9 68//9
f 18//10 19//10 56//10
f 18//10 56//10 55//10
f 5//11 6//11 43//11
f 5//11 43//11 42//11
f 32//12 33//12 70//12
f 32//12 70//12 69//12
f 19//13 20//13 57//13
f 19//13 57//13 56//13
f 6//14 7//14 44//14
f 6//14 44//14 43//14
f 33//15 34//15 71//15
f 33//15 71//15 70//15
f 20//16 21//16 58//16
f 20//16 58//16 57//16
f 7//17 8//17 45//17
f 7//17 45//17 44//17
f 34//18 35//18 72//18
f 34//18 72//18 71//18
f 21//19 22//19 59//19
f 21//19 59//19 58//19
f 8//20 9//20 46//20
f 8//20 46//20 45//20
f 35//21 36//21 73//21
f 35//21 73//21 72//21
f 22//22 23//22 60//22
f 22//22 60//22 59//22
f 9//23 10//23 47//23
f 9//23 47//23 46//23
f 36//24 37//24 74//24
f 36//24 74//24 73//24
f 23//25 24//25 61//25
f 23//25 61//25 60//25
f 10//26 11//26 48//26
f 10//26 48//26 47//26
f 24//27 25//27 62//27
f 24//27 62//27 61//27
f 11//28 12//28 49//28
f 11//28 49//28 48//28
f 25//29 26//29 63//29
f 25//29 63//29 62//29
f 12//30 13//30 50//30
f 12//30 50//30 49//30
f 26//31 27//31 64//31
f 26//31 64//31 63//31
f 13//32 14//32 51//32
f 13//32 51//32 50//32
f 27//33 28//33 65//33
f 27//33 65//33 64//33
f 14//34 15//34 52//34
f 14//34 52//34 51//34
f 1//35 2//35 39//35
f 1//35 39//35 38//35
f 28//36 29//36 66//36
f 28//36 66//36 65//36
#72 faces
