# Blender v2.93.2 OBJ File: 'untitled.blend'
# www.blender.org
mtllib curve_wall_thick.mtl
o curve_wall.001
v -15.379069 46.210842 -9.999990
v -11.937913 47.474945 -9.999990
v -11.937913 47.474945 10.000010
v -15.379069 46.210842 10.000010
v -31.201292 3.460152 -9.999999
v -30.798304 7.014846 -9.999999
v -30.798304 7.014843 10.000001
v -31.201292 3.460147 10.000001
v 24.584774 32.352886 -9.999992
v 25.716700 28.374250 -9.999994
v 25.716700 28.374247 10.000007
v 24.584774 32.352886 10.000008
v -7.998455 48.374306 -9.999990
v -7.998455 48.374306 10.000010
v -30.202181 10.828791 -9.999998
v -30.202181 10.828786 10.000002
v 26.773458 24.175291 -9.999995
v 26.773458 24.175287 10.000006
v -3.739014 48.921951 -9.999990
v -3.739014 48.921951 10.000010
v -29.436605 14.815412 -9.999996
v -29.436605 14.815407 10.000003
v 27.717415 19.859150 -9.999996
v 27.717415 19.859146 10.000003
v 0.662096 49.130901 -9.999990
v 0.662096 49.130901 10.000010
v -28.525251 18.888140 -9.999996
v -28.525251 18.888136 10.000003
v 28.510935 15.528976 -9.999996
v 28.510935 15.528972 10.000003
v 5.026556 49.014175 -9.999990
v 5.026556 49.014175 10.000010
v -27.491808 22.960405 -9.999995
v -27.491808 22.960402 10.000006
v 29.116385 11.287919 -9.999998
v 29.116385 11.287914 10.000002
v 9.176054 48.584801 -9.999990
v 9.176054 48.584801 10.000010
v -26.359945 26.945639 -9.999994
v -26.359945 26.945635 10.000007
v 29.496130 7.239122 -9.999999
v 29.496130 7.239119 10.000001
v 12.932273 47.855801 -9.999990
v 12.932273 47.855801 10.000010
v -25.153349 30.757265 -9.999994
v -25.153349 30.757261 10.000007
v 29.612532 3.485736 -9.999999
v 29.612532 3.485731 10.000001
v 16.116896 46.840191 -9.999990
v 16.116896 46.840191 10.000010
v -23.895700 34.308716 -9.999992
v -23.895700 34.308716 10.000008
v 29.427961 0.130902 -10.000000
v 29.427961 0.130897 10.000000
v 18.551609 45.550999 -9.999990
v 18.551609 45.550999 10.000010
v -22.610674 37.513424 -9.999992
v -22.610674 37.513424 10.000008
v 20.058105 44.001244 -9.999990
v 20.058105 44.001244 10.000010
v -21.321959 40.284817 -9.999991
v -21.321959 40.284817 10.000009
v 21.114347 41.935375 -9.999991
v 21.114347 41.935375 10.000009
v -20.053228 42.536324 -9.999991
v -20.053228 42.536324 10.000009
v 22.245964 39.236595 -9.999991
v 22.245964 39.236595 10.000009
v -18.143614 44.568977 -9.999990
v -18.143614 44.568977 10.000010
v 23.415318 36.008049 -9.999992
v 23.415318 36.008049 10.000008
v -31.387461 0.251275 -10.000000
v -31.387461 0.251270 10.000000
v -19.385199 57.676064 -13.313573
v -15.128392 59.239799 -13.313573
v -15.128392 59.239796 11.426982
v -19.385199 57.676060 11.426982
v -38.957726 4.792264 -13.313583
v -38.459221 9.189521 -13.313582
v -38.459221 9.189515 11.426972
v -38.957726 4.792260 11.426971
v 30.051186 40.533382 -13.313576
v 31.451408 35.611698 -13.313578
v 31.451408 35.611694 11.426978
v 30.051186 40.533379 11.426979
v -10.255172 60.352318 -13.313573
v -10.255172 60.352314 11.426982
v -37.721794 13.907475 -13.313582
v -37.721794 13.907472 11.426972
v 32.758652 30.417465 -13.313579
v 32.758652 30.417461 11.426977
v -4.986125 61.029778 -13.313573
v -4.986125 61.029774 11.426982
v -36.774757 18.839035 -13.313581
v -36.774757 18.839031 11.426973
v 33.926353 25.078281 -13.313580
v 33.926353 25.078278 11.426974
v 0.458169 61.288254 -13.313573
v 0.458169 61.288250 11.426982
v -35.647392 23.877113 -13.313580
v -35.647392 23.877110 11.426974
v 34.907959 19.721729 -13.313581
v 34.907959 19.721725 11.426973
v 5.857129 61.143867 -13.313573
v 5.857129 61.143864 11.426982
v -34.368988 28.914619 -13.313579
v -34.368988 28.914616 11.426977
v 35.656914 14.475430 -13.313582
v 35.656914 14.475425 11.426972
v 10.990171 60.612709 -13.313573
v 10.990171 60.612705 11.426982
v -32.968849 33.844467 -13.313578
v -32.968849 33.844463 11.426978
v 36.126671 9.466956 -13.313582
v 36.126671 9.466952 11.426972
v 15.636719 59.710922 -13.313573
v 15.636719 59.710918 11.426982
v -31.476250 38.559555 -13.313577
v -31.476250 38.559551 11.426979
v 36.270660 4.823911 -13.313583
v 36.270660 4.823906 11.426971
v 19.576185 58.454582 -13.313573
v 19.576185 58.454578 11.426982
v -29.920506 42.952801 -13.313576
v -29.920506 42.952797 11.426979
v 36.042343 0.673890 -13.313584
v 36.042343 0.673886 11.426970
v 22.587994 56.859818 -13.313573
v 22.587994 56.859814 11.426982
v -28.330893 46.917114 -13.313575
v -28.330893 46.917110 11.426980
v 24.451572 54.942719 -13.313574
v 24.451572 54.942715 11.426981
v -26.736715 50.345402 -13.313574
v -26.736715 50.345398 11.426981
v 25.758173 52.387192 -13.313574
v 25.758173 52.387188 11.426981
v -25.167261 53.130577 -13.313574
v -25.167261 53.130573 11.426981
v 27.158014 49.048721 -13.313575
v 27.158014 49.048717 11.426980
v -22.805016 55.645027 -13.313573
v -22.805016 55.645023 11.426982
v 28.604536 45.054920 -13.313575
v 28.604536 45.054916 11.426980
v -39.188019 0.822793 -13.313584
v -39.188019 0.822789 11.426970
vn 0.3560 -0.8014 -0.4806
vn 0.2340 -0.8450 -0.4808
vn 0.2582 -0.8115 0.5242
vn 0.3875 -0.7581 0.5246
vn 0.8950 -0.0832 -0.4383
vn 0.8898 -0.1250 -0.4389
vn 0.8556 -0.1098 0.5059
vn 0.8602 -0.0666 0.5057
vn -0.8633 -0.2568 -0.4346
vn -0.8722 -0.2300 -0.4316
vn -0.8340 -0.2276 0.5026
vn -0.8256 -0.2538 0.5039
vn 0.1418 -0.8654 -0.4806
vn 0.1618 -0.8363 0.5239
vn 0.8841 -0.1581 -0.4397
vn 0.8504 -0.1435 0.5062
vn -0.8802 -0.2031 -0.4290
vn -0.8413 -0.2019 0.5015
vn 0.0668 -0.8745 -0.4804
vn 0.0851 -0.8476 0.5238
vn 0.8782 -0.1862 -0.4406
vn 0.8449 -0.1716 0.5066
vn -0.8875 -0.1742 -0.4266
vn -0.8480 -0.1748 0.5004
vn -0.0002 -0.8771 -0.4803
vn 0.0186 -0.8517 0.5237
vn 0.8718 -0.2116 -0.4418
vn 0.8392 -0.1966 0.5071
vn -0.8945 -0.1410 -0.4243
vn -0.8543 -0.1443 0.4994
vn -0.0664 -0.8746 -0.4803
vn -0.0452 -0.8507 0.5237
vn 0.8648 -0.2360 -0.4432
vn 0.8329 -0.2201 0.5077
vn 0.8391 -0.1966 0.5071
vn -0.9009 -0.1008 -0.4222
vn -0.8602 -0.1079 0.4984
vn -0.1397 -0.8659 -0.4804
vn -0.1135 -0.8442 0.5238
vn 0.8648 -0.2360 -0.4431
vn 0.8568 -0.2609 -0.4448
vn 0.8258 -0.2439 0.5085
vn 0.8329 -0.2202 0.5078
vn -0.9009 -0.1008 -0.4221
vn -0.9062 -0.0491 -0.4200
vn -0.8653 -0.0619 0.4975
vn -0.2312 -0.8460 -0.4805
vn -0.1959 -0.8289 0.5240
vn 0.8567 -0.2609 -0.4449
vn 0.8469 -0.2881 -0.4470
vn 0.8173 -0.2694 0.5094
vn -0.9083 0.0210 -0.4178
vn -0.8680 -0.0005 0.4966
vn -0.3602 -0.7996 -0.4804
vn -0.3081 -0.7938 0.5244
vn 0.8339 -0.3199 -0.4496
vn 0.8063 -0.2986 0.5106
vn -0.7297 -0.4898 -0.4770
vn -0.8511 -0.3502 0.3911
vn -0.3602 -0.7997 -0.4804
vn -0.5580 -0.6781 -0.4784
vn -0.4772 -0.7045 0.5253
vn -0.3081 -0.7937 0.5244
vn 0.8340 -0.3199 -0.4496
vn 0.8156 -0.3598 -0.4531
vn 0.7911 -0.3346 0.5121
vn -0.5580 -0.6780 -0.4784
vn -0.7414 -0.4840 -0.4648
vn -0.6717 -0.5283 0.5193
vn -0.4773 -0.7045 0.5253
vn 0.8156 -0.3599 -0.4531
vn 0.7866 -0.4142 -0.4578
vn 0.7676 -0.3825 0.5142
vn -0.8144 -0.3680 -0.4487
vn -0.7759 -0.3710 0.5103
vn 0.6947 -0.5458 -0.4685
vn 0.7069 -0.4795 0.5200
vn 0.7676 -0.3826 0.5142
vn -0.8375 -0.3206 -0.4426
vn -0.8003 -0.3193 0.5075
vn 0.5225 -0.7057 -0.4785
vn 0.5614 -0.6399 0.5248
vn -0.8523 -0.2858 -0.4381
vn -0.8151 -0.2830 0.5055
vn 0.5226 -0.7057 -0.4785
vn 0.3560 -0.8014 -0.4807
vn 0.8453 -0.4151 -0.3365
vn 0.8602 -0.0666 0.5056
vn 0.6059 -0.5846 0.5396
vn -0.8256 -0.2538 0.5040
vn -0.8151 -0.2830 0.5056
vn -0.3112 0.7229 -0.6169
vn -0.2487 0.7728 0.5839
vn -0.2044 0.7611 -0.6156
vn -0.3726 0.7205 0.5849
vn -0.7660 0.0751 -0.6385
vn -0.7957 0.1008 0.5972
vn -0.7620 0.1101 -0.6381
vn -0.7996 0.0601 0.5975
vn 0.7371 0.2168 -0.6401
vn 0.7718 0.2117 0.5996
vn 0.7424 0.1935 -0.6415
vn 0.7654 0.2364 0.5986
vn -0.1563 0.7969 0.5835
vn -0.1230 0.7787 -0.6153
vn -0.7620 0.1101 -0.6382
vn -0.7913 0.1325 0.5969
vn -0.7578 0.1380 -0.6377
vn 0.7424 0.1934 -0.6415
vn 0.7774 0.1877 0.6004
vn 0.7471 0.1700 -0.6426
vn -0.0829 0.8079 0.5834
vn -0.0562 0.7863 -0.6153
vn -0.1562 0.7969 0.5836
vn -0.7578 0.1381 -0.6377
vn -0.7867 0.1588 0.5966
vn -0.7534 0.1620 -0.6373
vn -0.7913 0.1324 0.5969
vn 0.7824 0.1625 0.6012
vn 0.7514 0.1449 -0.6437
vn 0.7773 0.1877 0.6004
vn -0.0562 0.7863 -0.6152
vn -0.0193 0.8119 0.5834
vn 0.0037 0.7883 -0.6152
vn -0.7819 0.1822 0.5962
vn -0.7489 0.1838 -0.6367
vn 0.7871 0.1344 0.6020
vn 0.7556 0.1160 -0.6447
vn 0.0037 0.7883 -0.6153
vn 0.0415 0.8111 0.5834
vn 0.0633 0.7858 -0.6153
vn -0.7767 0.2044 0.5958
vn -0.7440 0.2050 -0.6360
vn 0.7915 0.1011 0.6027
vn 0.7593 0.0811 -0.6456
vn 0.1064 0.8051 0.5835
vn 0.1297 0.7775 -0.6153
vn -0.7423 0.2108 -0.6360
vn -0.7709 0.2268 0.5952
vn -0.7383 0.2270 -0.6351
vn 0.7593 0.0811 -0.6457
vn 0.7952 0.0592 0.6035
vn 0.7620 0.0363 -0.6466
vn 0.1843 0.7907 0.5838
vn 0.2131 0.7587 -0.6156
vn -0.7364 0.2331 -0.6352
vn -0.7640 0.2508 0.5945
vn -0.7313 0.2512 -0.6341
vn 0.7619 0.0363 -0.6466
vn 0.7967 0.0038 0.6044
vn 0.7615 -0.0246 -0.6477
vn 0.7952 0.0593 0.6035
vn 0.2899 0.7576 0.5849
vn 0.3308 0.7141 -0.6169
vn -0.7550 0.2784 0.5937
vn -0.7220 0.2799 -0.6327
vn 0.7862 -0.4610 0.4116
vn 0.4206 -0.6846 -0.5953
vn 0.4464 0.6734 0.5893
vn 0.5078 0.5954 -0.6225
vn -0.7425 0.3125 0.5926
vn -0.7083 0.3164 -0.6310
vn 0.5079 0.5955 -0.6225
vn 0.6265 0.5054 0.5933
vn 0.6574 0.4138 -0.6297
vn 0.4464 0.6735 0.5893
vn -0.7228 0.3580 0.5912
vn -0.6858 0.3668 -0.6286
vn -0.7425 0.3124 0.5925
vn 0.7246 0.3492 0.5942
vn 0.7070 0.3145 -0.6334
vn 0.6265 0.5055 0.5933
vn -0.6706 0.4491 0.5904
vn -0.6035 0.4942 -0.6257
vn -0.7228 0.3580 0.5911
vn 0.7452 0.2991 0.5960
vn 0.7215 0.2728 -0.6364
vn -0.5375 0.6042 0.5882
vn -0.4536 0.6390 -0.6212
vn 0.7216 0.2727 -0.6364
vn 0.7571 0.2642 0.5974
vn 0.7305 0.2422 -0.6385
vn -0.7931 -0.4268 -0.4346
vn -0.5464 -0.5817 0.6025
vn 0.7370 0.2168 -0.6401
usemtl Default_OBJ.001
s 1
f 1//1 2//2 3//3
f 1//1 3//3 4//4
f 5//5 6//6 7//7
f 5//5 7//7 8//8
f 9//9 10//10 11//11
f 9//9 11//11 12//12
f 2//2 13//13 14//14
f 2//2 14//14 3//3
f 6//6 15//15 16//16
f 6//6 16//16 7//7
f 10//10 17//17 18//18
f 10//10 18//18 11//11
f 13//13 19//19 20//20
f 13//13 20//20 14//14
f 15//15 21//21 22//22
f 15//15 22//22 16//16
f 17//17 23//23 24//24
f 17//17 24//24 18//18
f 19//19 25//25 26//26
f 19//19 26//26 20//20
f 21//21 27//27 28//28
f 21//21 28//28 22//22
f 23//23 29//29 30//30
f 23//23 30//30 24//24
f 25//25 31//31 32//32
f 25//25 32//32 26//26
f 27//27 33//33 34//34
f 27//27 34//34 28//35
f 29//29 35//36 36//37
f 29//29 36//37 30//30
f 31//31 37//38 38//39
f 31//31 38//39 32//32
f 33//40 39//41 40//42
f 33//40 40//42 34//43
f 35//44 41//45 42//46
f 35//44 42//46 36//37
f 37//38 43//47 44//48
f 37//38 44//48 38//39
f 39//49 45//50 46//51
f 39//49 46//51 40//42
f 41//45 47//52 48//53
f 41//45 48//53 42//46
f 43//47 49//54 50//55
f 43//47 50//55 44//48
f 45//50 51//56 52//57
f 45//50 52//57 46//51
f 47//52 53//58 54//59
f 47//52 54//59 48//53
f 49//60 55//61 56//62
f 49//60 56//62 50//63
f 51//64 57//65 58//66
f 51//64 58//66 52//57
f 55//67 59//68 60//69
f 55//67 60//69 56//70
f 57//71 61//72 62//73
f 57//71 62//73 58//66
f 59//68 63//74 64//75
f 59//68 64//75 60//69
f 61//72 65//76 66//77
f 61//72 66//77 62//78
f 63//74 67//79 68//80
f 63//74 68//80 64//75
f 65//76 69//81 70//82
f 65//76 70//82 66//77
f 67//79 71//83 72//84
f 67//79 72//84 68//80
f 69//85 1//86 4//4
f 69//85 4//4 70//82
f 73//87 5//5 8//88
f 73//87 8//88 74//89
f 71//83 9//9 12//90
f 71//83 12//90 72//91
f 75//92 77//93 76//94
f 75//92 78//95 77//93
f 79//96 81//97 80//98
f 79//96 82//99 81//97
f 83//100 85//101 84//102
f 83//100 86//103 85//101
f 76//94 88//104 87//105
f 76//94 77//93 88//104
f 80//106 90//107 89//108
f 80//106 81//97 90//107
f 84//109 92//110 91//111
f 84//109 85//101 92//110
f 87//105 94//112 93//113
f 87//105 88//114 94//112
f 89//115 96//116 95//117
f 89//115 90//118 96//116
f 91//111 98//119 97//120
f 91//111 92//121 98//119
f 93//122 100//123 99//124
f 93//122 94//112 100//123
f 95//117 102//125 101//126
f 95//117 96//116 102//125
f 97//120 104//127 103//128
f 97//120 98//119 104//127
f 99//129 106//130 105//131
f 99//129 100//123 106//130
f 101//126 108//132 107//133
f 101//126 102//125 108//132
f 103//128 110//134 109//135
f 103//128 104//127 110//134
f 105//131 112//136 111//137
f 105//131 106//130 112//136
f 107//138 114//139 113//140
f 107//138 108//132 114//139
f 109//141 116//142 115//143
f 109//141 110//134 116//142
f 111//137 118//144 117//145
f 111//137 112//136 118//144
f 113//146 120//147 119//148
f 113//146 114//139 120//147
f 115//149 122//150 121//151
f 115//149 116//152 122//150
f 117//145 124//153 123//154
f 117//145 118//144 124//153
f 119//148 126//155 125//156
f 119//148 120//147 126//155
f 121//151 128//157 127//158
f 121//151 122//150 128//157
f 123//154 130//159 129//160
f 123//154 124//153 130//159
f 125//156 132//161 131//162
f 125//156 126//155 132//161
f 129//163 134//164 133//165
f 129//163 130//166 134//164
f 131//162 136//167 135//168
f 131//162 132//169 136//167
f 133//165 138//170 137//171
f 133//165 134//172 138//170
f 135//168 140//173 139//174
f 135//168 136//175 140//173
f 137//171 142//176 141//177
f 137//171 138//170 142//176
f 139//174 144//178 143//179
f 139//174 140//173 144//178
f 141//180 146//181 145//182
f 141//180 142//176 146//181
f 143//179 78//95 75//92
f 143//179 144//178 78//95
f 147//183 82//99 79//96
f 147//183 148//184 82//99
f 145//182 86//103 83//185
f 145//182 146//181 86//103
f 10//10 84//109 91//111 17//17
f 14//14 88//104 77//93 3//3
f 43//47 117//145 123//154 49//54
f 17//17 91//111 97//120 23//23
f 64//75 138//170 134//172 60//69
f 7//7 81//97 82//99 8//8
f 27//27 101//126 107//133 33//33
f 20//20 94//112 88//114 14//14
f 45//50 119//148 125//156 51//56
f 19//19 93//122 99//124 25//25
f 22//22 96//116 90//118 16//16
f 68//80 142//176 138//170 64//75
f 24//24 98//119 92//121 18//18
f 4//4 78//95 144//178 70//82
f 47//52 121//151 127//158 53//58
f 21//21 95//117 101//126 27//27
f 26//26 100//123 94//112 20//20
f 70//82 144//178 140//173 66//77
f 28//28 102//125 96//116 22//22
f 16//16 90//107 81//97 7//7
f 49//60 123//154 129//160 55//61
f 23//23 97//120 103//128 29//29
f 30//30 104//127 98//119 24//24
f 11//11 85//101 86//103 12//12
f 72//84 146//181 142//176 68//80
f 32//32 106//130 100//123 26//26
f 51//64 125//156 131//162 57//65
f 25//25 99//129 105//131 31//31
f 34//34 108//132 102//125 28//35
f 8//88 82//99 148//184 74//89
f 36//37 110//134 104//127 30//30
f 18//18 92//110 85//101 11//11
f 55//67 129//163 133//165 59//68
f 3//3 77//93 78//95 4//4
f 69//85 143//179 75//92 1//86
f 1//1 75//92 76//94 2//2
f 53//58 127//158 128//157 54//59
f 38//39 112//136 106//130 32//32
f 12//90 86//103 146//181 72//91
f 57//71 131//162 135//168 61//72
f 29//29 103//128 109//135 35//36
f 40//42 114//139 108//132 34//43
f 5//5 79//96 80//98 6//6
f 42//46 116//142 110//134 36//37
f 59//68 133//165 137//171 63//74
f 31//31 105//131 111//137 37//38
f 44//48 118//144 112//136 38//39
f 46//51 120//147 114//139 40//42
f 61//72 135//168 139//174 65//76
f 33//40 107//138 113//140 39//41
f 9//9 83//100 84//102 10//10
f 48//53 122//150 116//152 42//46
f 50//55 124//153 118//144 44//48
f 66//77 140//173 136//175 62//78
f 63//74 137//171 141//177 67//79
f 35//44 109//141 115//143 41//45
f 71//83 145//182 83//185 9//9
f 52//57 126//155 120//147 46//51
f 54//59 128//157 122//150 48//53
f 65//76 139//174 143//179 69//81
f 37//38 111//137 117//145 43//47
f 56//62 130//159 124//153 50//63
f 2//2 76//94 87//105 13//13
f 67//79 141//180 145//182 71//83
f 39//49 113//146 119//148 45//50
f 13//13 87//105 93//113 19//19
f 58//66 132//161 126//155 52//57
f 60//69 134//164 130//166 56//70
f 6//6 80//106 89//108 15//15
f 73//87 147//183 79//96 5//5
f 41//45 115//149 121//151 47//52
f 15//15 89//115 95//117 21//21
f 62//73 136//167 132//169 58//66
f 74//89 148//184 147//183 73//87
